<svg width="24" height="21" viewBox="0 0 24 21" fill="none" xmlns="http://www.w3.org/2000/svg">
    <path fill-rule="evenodd" clip-rule="evenodd" d="M4.02545 4.47273L1.10182 1.54909L2.64 0L21.9818 19.3527L20.4436 20.8909L16.7127 17.16C15.2509 17.7382 13.6582 18.0545 12 18.0545C6.54545 18.0545 1.88727 14.6618 0 9.87273C0.84 7.72364 2.24727 5.86909 4.02545 4.47273ZM11.9999 3.87273C16.1344 3.87273 19.8217 6.19637 21.6217 9.87273C20.978 11.2036 20.0726 12.3491 18.9926 13.2764L20.5308 14.8145C22.0471 13.4727 23.2471 11.7927 23.9999 9.87273C22.1126 5.08364 17.4544 1.69091 11.9999 1.69091C10.6144 1.69091 9.28349 1.90909 8.02894 2.31273L9.82894 4.11273C10.538 3.97091 11.258 3.87273 11.9999 3.87273ZM10.8329 5.11637L13.0911 7.37455C13.7129 7.64728 14.2147 8.14909 14.4875 8.77091L16.7456 11.0291C16.8329 10.6582 16.8984 10.2655 16.8984 9.86182C16.9093 7.15637 14.7056 4.96364 12.0002 4.96364C11.5966 4.96364 11.2147 5.01819 10.8329 5.11637ZM9.28364 9.73091L12.1309 12.5782C12.0873 12.5891 12.0436 12.6 12 12.6C10.4945 12.6 9.27273 11.3782 9.27273 9.87273C9.27273 9.84545 9.27545 9.82364 9.27818 9.80182C9.28091 9.78 9.28364 9.75818 9.28364 9.73091ZM7.48383 7.93091L5.57474 6.02182C4.25474 7.02546 3.14201 8.31273 2.37837 9.87273C4.17837 13.5491 7.86565 15.8727 12.0002 15.8727C13.0366 15.8727 14.0402 15.72 15.0002 15.4582L13.9311 14.3891C13.342 14.64 12.6875 14.7818 12.0002 14.7818C9.29474 14.7818 7.0911 12.5782 7.0911 9.87273C7.0911 9.18546 7.23292 8.53091 7.48383 7.93091Z" fill="#9FA3A9"/>
</svg>
