<svg width="35" height="30" viewBox="0 0 35 30" fill="none" xmlns="http://www.w3.org/2000/svg">
<path d="M34.1227 9.62087L18.3502 0.26231C17.8209 -0.0522805 17.1779 -0.0522805 16.6486 0.26231L0.874545 9.62087C0.320628 9.95206 -0.0244141 10.5772 -0.0244141 11.2565V23.4225C-0.0244141 23.9392 0.368142 24.3585 0.851638 24.3585H2.60404C3.08784 24.3585 3.48039 23.9392 3.48039 23.4225V14.437L6.9855 16.5163V24.3588C6.9855 27.4602 9.33906 29.9738 12.243 29.9738H22.758C25.662 29.9738 28.0155 27.4602 28.0155 24.3588V16.5166L34.123 12.8932C34.6804 12.5636 35.0255 11.9366 35.0255 11.257C35.0255 10.5777 34.6802 9.95022 34.1227 9.62087ZM24.5105 24.3586C24.5105 25.3897 23.7254 26.2301 22.7581 26.2301H12.2431C11.2758 26.2301 10.4907 25.3897 10.4907 24.3586V18.5957L16.6507 22.251C16.9136 22.408 17.2078 22.4867 17.5006 22.4867C17.7934 22.4867 18.0877 22.408 18.3505 22.2507L24.5105 18.5957V24.3586ZM17.5006 18.4742L5.33847 11.2567L17.5006 4.03966L29.6627 11.2567L17.5006 18.4742Z" fill="#C7C7CC"/>
</svg>
