<svg width="24" height="23" viewBox="0 0 24 23" fill="none" xmlns="http://www.w3.org/2000/svg">
    <path d="M15.58 11.5C15.58 13.3975 13.98 14.9308 12 14.9308C10.02 14.9308 8.42004 13.3975 8.42004 11.5C8.42004 9.6025 10.02 8.06917 12 8.06917C13.98 8.06917 15.58 9.6025 15.58 11.5Z" stroke="#70747E" stroke-width="1.5" stroke-linecap="round" stroke-linejoin="round"/>
    <path d="M11.9998 19.4254C15.5298 19.4254 18.8198 17.4321 21.1098 13.9821C22.0098 12.6308 22.0098 10.3596 21.1098 9.00833C18.8198 5.55833 15.5298 3.565 11.9998 3.565C8.46984 3.565 5.17984 5.55833 2.88984 9.00833C1.98984 10.3596 1.98984 12.6308 2.88984 13.9821C5.17984 17.4321 8.46984 19.4254 11.9998 19.4254Z" stroke="#70747E" stroke-width="1.5" stroke-linecap="round" stroke-linejoin="round"/>
</svg>
