<svg width="30" height="30" viewBox="0 0 30 30" fill="none" xmlns="http://www.w3.org/2000/svg">
<g clip-path="url(#clip0_160_260)">
<path d="M8.33416 0H5.00073C2.24402 0 0.000732422 2.24329 0.000732422 5V23.3336C0.000732422 23.7753 0.175676 24.2002 0.489012 24.5119L5.48901 29.5119C5.81407 29.8369 6.24065 30.0001 6.6673 30.0001C7.09392 30.0001 7.52051 29.8369 7.84558 29.5119L12.8456 24.5119C13.1589 24.2002 13.3341 23.7753 13.3341 23.3336V5C13.3341 2.24329 11.0909 0 8.33414 0H8.33416ZM5.00073 3.33343H8.33416C9.25238 3.33343 10.0007 4.08179 10.0007 5V6.66657H3.33416V5C3.33416 4.08179 4.08252 3.33343 5.00073 3.33343ZM6.6673 25.9763L3.33388 22.6429L3.33415 10H10.0007V22.6436L6.6673 25.9763Z" fill="#C7C7CC"/>
<path d="M25.0002 0H21.6667C18.91 0 16.6667 2.24329 16.6667 5V25C16.6667 27.7567 18.91 30 21.6667 30H25.0002C27.7569 30 30.0002 27.7567 30.0002 25V5C30.0002 2.24329 27.7569 0 25.0002 0ZM26.6667 25C26.6667 25.9182 25.9184 26.6666 25.0002 26.6666H21.6667C20.7485 26.6666 20.0002 25.9182 20.0002 25V23.3334H22.5002C22.9603 23.3334 23.3336 22.9601 23.3336 22.5V20.8334C23.3336 20.3733 22.9603 20 22.5002 20H20.0002V16.6666H22.5002C22.9603 16.6666 23.3336 16.2932 23.3336 15.8331V14.1666C23.3336 13.7065 22.9603 13.3331 22.5002 13.3331L20.0002 13.3334V9.99999H22.5002C22.9603 9.99999 23.3336 9.62667 23.3336 9.16656V7.49999C23.3336 7.03989 22.9603 6.66657 22.5002 6.66657H20.0002V4.99999C20.0002 4.08178 20.7485 3.33342 21.6667 3.33342H25.0002C25.9184 3.33342 26.6667 4.08178 26.6667 4.99999V25Z" fill="#C7C7CC"/>
</g>
<defs>
<clipPath id="clip0_160_260">
<rect width="30" height="30" fill="white"/>
</clipPath>
</defs>
</svg>
