<svg width="30" height="28" viewBox="0 0 30 28" fill="none" xmlns="http://www.w3.org/2000/svg">
<path d="M15 27.9997H26.1628C27.1805 27.9997 28.1565 27.6224 28.8761 26.9508C29.5957 26.2791 30 25.3682 30 24.4183V13.9999C30 11.2309 29.1203 8.52422 27.472 6.22196C25.8238 3.91969 23.4811 2.1253 20.7403 1.06568C17.9994 0.00606584 14.9834 -0.271178 12.0737 0.26901C9.16394 0.809197 6.49119 2.14255 4.39341 4.10047C2.29562 6.05838 0.867008 8.55291 0.288229 11.2686C-0.290548 13.9843 0.00650024 16.7992 1.14182 19.3574C2.27713 21.9155 4.19972 24.102 6.66645 25.6403C9.13319 27.1786 12.0333 27.9997 15 27.9997ZM15 1.95347C18.422 1.95692 21.7028 3.2272 24.1225 5.48558C26.5423 7.74397 27.9033 10.806 27.907 13.9999V24.4183C27.907 24.8501 27.7232 25.2642 27.3961 25.5694C27.069 25.8747 26.6254 26.0462 26.1628 26.0462H15C11.5769 26.0462 8.29392 24.7771 5.8734 22.5179C3.45287 20.2588 2.09303 17.1948 2.09303 13.9999C2.09303 10.805 3.45287 7.74091 5.8734 5.48178C8.29392 3.22264 11.5769 1.95347 15 1.95347Z" fill="#C7C7CC"/>
<path d="M9.92059 12.6055H20.0787C20.3563 12.6055 20.6225 12.5026 20.8187 12.3195C21.015 12.1365 21.1252 11.8882 21.1252 11.6292C21.1252 11.3703 21.015 11.122 20.8187 10.9389C20.6225 10.7559 20.3563 10.653 20.0787 10.653H9.92059C9.64304 10.653 9.37686 10.7559 9.1806 10.9389C8.98434 11.122 8.87408 11.3703 8.87408 11.6292C8.87408 11.8882 8.98434 12.1365 9.1806 12.3195C9.37686 12.5026 9.64304 12.6055 9.92059 12.6055Z" fill="#C7C7CC"/>
<path d="M14.9997 18.5301H20.0787C20.3563 18.5301 20.6225 18.4273 20.8187 18.2442C21.015 18.0611 21.1252 17.8128 21.1252 17.5539C21.1252 17.295 21.015 17.0467 20.8187 16.8636C20.6225 16.6806 20.3563 16.5777 20.0787 16.5777H14.9997C14.7221 16.5777 14.4559 16.6806 14.2597 16.8636C14.0634 17.0467 13.9532 17.295 13.9532 17.5539C13.9532 17.8128 14.0634 18.0611 14.2597 18.2442C14.4559 18.4273 14.7221 18.5301 14.9997 18.5301Z" fill="#C7C7CC"/>
</svg>
