<svg width="24" height="24" viewBox="0 0 24 24" fill="none" xmlns="http://www.w3.org/2000/svg">
    <path d="M17 14.62L19.55 15.89C19.7022 15.9667 19.8715 16.0032 20.0419 15.9961C20.2122 15.989 20.3778 15.9384 20.5231 15.8492C20.6684 15.7601 20.7885 15.6352 20.8719 15.4866C20.9554 15.338 20.9995 15.1705 21 15V9C20.9995 8.82954 20.9554 8.66203 20.8719 8.5134C20.7885 8.36477 20.6684 8.23994 20.5231 8.15076C20.3778 8.06159 20.2122 8.01104 20.0419 8.0039C19.8715 7.99677 19.7022 8.03329 19.55 8.11L17 9.38V14.62ZM16 18H4C3.73478 18 3.48043 17.8946 3.29289 17.7071C3.10536 17.5196 3 17.2652 3 17V7C3 6.73478 3.10536 6.48043 3.29289 6.29289C3.48043 6.10536 3.73478 6 4 6H16C16.2652 6 16.5196 6.10536 16.7071 6.29289C16.8946 6.48043 17 6.73478 17 7V17C17 17.2652 16.8946 17.5196 16.7071 17.7071C16.5196 17.8946 16.2652 18 16 18ZM11 12L9 10.5V13.5L11 12Z" stroke="black" stroke-width="2" stroke-linecap="round" stroke-linejoin="round"/>
</svg>
