<svg width="28" height="32" viewBox="0 0 28 32" fill="none" xmlns="http://www.w3.org/2000/svg">
<g clip-path="url(#clip0_160_265)">
<path d="M13.9999 16C16.8893 16 19.2406 13.8434 19.2406 11.1932C19.2406 8.54293 16.8893 6.38629 13.9999 6.38629C11.1105 6.38629 8.75928 8.54293 8.75928 11.1932C8.75928 13.8434 11.1105 16 13.9999 16ZM13.9999 9.59096C14.9641 9.59096 15.7467 10.3104 15.7467 11.1932C15.7467 12.0759 14.9641 12.7954 13.9999 12.7954C13.0357 12.7954 12.2531 12.0759 12.2531 11.1932C12.2531 10.3104 13.0357 9.59096 13.9999 9.59096Z" fill="#C7C7CC"/>
<path d="M27.7424 29.6227L21.6703 19.9142C24.4462 17.8568 26.2278 14.713 26.2278 11.1932C26.2278 5.00836 20.7409 -0.022644 13.9999 -0.022644C7.25887 -0.022644 1.77199 5.0085 1.77199 11.1932C1.77199 14.7133 3.55388 17.857 6.32948 19.9142L0.257446 29.6227C-0.0972927 30.1884 -0.0411428 30.8933 0.397237 31.4075C0.835617 31.9218 1.57114 32.1398 2.2525 31.9604L13.9998 28.8826L25.7493 31.9607C25.9063 32.0022 26.0672 32.0229 26.2277 32.0229C26.7571 32.0229 27.2671 31.8019 27.6025 31.4075C28.0412 30.8949 28.097 30.1884 27.7423 29.6227L27.7424 29.6227ZM5.26525 11.1932C5.26525 6.77578 9.18346 3.18148 13.9999 3.18148C18.8159 3.18148 22.7346 6.77537 22.7346 11.1932C22.7346 15.6105 18.8164 19.2048 13.9999 19.2048C9.18391 19.2048 5.26525 15.6107 5.26525 11.1932ZM14.4783 25.6762C14.1639 25.5928 13.8337 25.5928 13.5193 25.6762L5.42629 27.7978L9.3287 21.5569C10.7696 22.103 12.3453 22.4091 13.9997 22.4091C15.6541 22.4091 17.2298 22.103 18.6692 21.555L22.5716 27.7959L14.4783 25.6762Z" fill="#C7C7CC"/>
</g>
<defs>
<clipPath id="clip0_160_265">
<rect width="28" height="32" fill="white"/>
</clipPath>
</defs>
</svg>
