<svg width="27" height="29" viewBox="0 0 27 29" fill="none" xmlns="http://www.w3.org/2000/svg">
    <g clip-path="url(#clip0_25_982)">
        <path d="M20.8406 0C22.7446 0.512031 24.4697 1.28914 25.6534 2.96344C27.6629 5.80906 27.4197 9.49523 24.9445 11.958C19.7556 17.1191 14.5597 22.2756 9.29737 27.3642C8.5266 28.1096 7.36814 28.463 6.38862 29C5.77613 29 5.16593 29 4.55344 29C2.37188 28.309 0.713341 27.1173 0.160495 24.752C-0.273065 22.8987 0.171965 21.2516 1.46117 19.9488C5.65684 15.7121 9.91445 11.5366 14.1789 7.36781C15.6402 5.94047 17.9181 5.92008 19.3633 7.22055C20.9071 8.60938 21.2145 10.8773 19.767 12.3907C16.6748 15.6283 13.4494 18.7458 10.2241 21.8542C9.97409 22.0966 9.15514 22.1012 8.84775 21.8791C8.19856 21.4102 8.54495 20.837 9.02668 20.3612C11.7863 17.6424 14.5391 14.9169 17.2941 12.1936C17.5648 11.9262 17.8424 11.668 18.0993 11.387C18.9091 10.5057 18.9389 9.53375 18.1888 8.7657C17.4111 7.9682 16.3467 7.96594 15.4521 8.83141C13.516 10.7073 11.6074 12.6127 9.68964 14.5068C7.52872 16.641 5.3678 18.7752 3.20688 20.914C1.61716 22.4886 1.53917 24.5866 3.0119 26.0343C4.44333 27.439 6.57672 27.3914 8.11827 25.8734C13.1811 20.8913 18.237 15.9047 23.2791 10.9022C25.5478 8.65242 25.6235 5.52812 23.5085 3.44375C21.4072 1.3707 18.2117 1.47039 15.9476 3.6975C12.213 7.37461 8.4876 11.063 4.7599 14.747C4.57179 14.9327 4.3791 15.1185 4.19329 15.3088C3.71385 15.805 3.1243 16.2423 2.51869 15.6759C1.87179 15.0687 2.27324 14.4637 2.81691 13.9313C6.04223 10.7663 9.25149 7.58758 12.4722 4.41797C13.4196 3.4868 14.2845 2.43555 15.3603 1.67883C16.3834 0.958359 17.6314 0.548281 18.7783 0.00226562C19.4642 0 20.1524 0 20.8406 0Z" fill="#D7D7D7"/>
    </g>
    <defs>
        <clipPath id="clip0_25_982">
            <rect width="27" height="29" fill="white"/>
        </clipPath>
    </defs>
</svg>
