<svg width="30" height="30" viewBox="0 0 30 30" fill="none" xmlns="http://www.w3.org/2000/svg">
<path d="M20.6283 14.4384C21.89 13.2734 22.8083 11.745 23.1649 10H24.1665C24.6266 10 24.9999 9.62667 24.9999 9.16657V7.5C24.9999 7.0399 24.6266 6.66657 24.1665 6.66657H23.1649C22.39 2.86829 19.0234 0 14.9999 0C10.9763 0 7.60986 2.86829 6.83486 6.66657H5.83322C5.37312 6.66657 4.99979 7.0399 4.99979 7.5V9.16657C4.99979 9.62667 5.37312 10 5.83322 10H6.83486C7.18977 11.745 8.11 13.2751 9.37143 14.4384C3.88314 16.6699 0 22.0534 0 28.3334C0 29.2549 0.745 29.9999 1.66657 29.9999H28.333C29.2546 29.9999 29.9996 29.2549 29.9996 28.3334C29.9999 22.0532 26.1165 16.6698 20.6281 14.4384H20.6283ZM9.99971 8.33343C9.99971 5.57671 12.243 3.33343 14.9997 3.33343C17.7564 3.33343 19.9997 5.57671 19.9997 8.33343C19.9997 11.0901 17.7564 13.3334 14.9997 13.3334C12.243 13.3334 9.99971 11.0901 9.99971 8.33343ZM3.45143 26.6663C4.26143 21.0195 9.13143 16.6663 15 16.6663C20.8686 16.6663 25.7364 21.0195 26.5486 26.6663H3.45143Z" fill="#C7C7CC"/>
</svg>
