<svg width="30" height="49" viewBox="0 0 30 49" fill="none" xmlns="http://www.w3.org/2000/svg">
    <path d="M0.779541 2.28065V40.3714C0.779541 42.498 1.14187 44.5969 1.84154 46.5207L2.20637 47.5225C2.7886 49.1266 4.55027 49.1266 5.13499 47.5225L6.01208 45.1101C6.22948 44.5078 6.89167 44.5078 7.10907 45.1101L7.98616 47.5225C8.56838 49.1266 10.3301 49.1266 10.9148 47.5225L11.7919 45.1101C12.0093 44.5078 12.6715 44.5078 12.8889 45.1101L13.7659 47.5225C14.3482 49.1266 16.1098 49.1266 16.6946 47.5225L17.5717 45.1101C17.789 44.5078 18.4512 44.5078 18.6686 45.1101L19.5457 47.5225C20.128 49.1266 21.8896 49.1266 22.4743 47.5225L23.3514 45.1101C23.5688 44.5078 24.231 44.5078 24.4484 45.1101L25.3255 47.5225C25.9077 49.1266 27.6694 49.1266 28.2541 47.5225L28.619 46.5207C29.3186 44.5969 29.681 42.498 29.681 40.3714V2.28065C29.681 1.2819 29.0563 0.473679 28.2841 0.473679H2.17638C1.40425 0.473679 0.779541 1.2819 0.779541 2.28065Z" fill="url(#paint0_linear_169_472)"/>
    <defs>
        <linearGradient id="paint0_linear_169_472" x1="15.2303" y1="0.473679" x2="15.2303" y2="48.7256" gradientUnits="userSpaceOnUse">
            <stop stop-color="#C0C0C0"/>
            <stop offset="1" stop-color="#908F92"/>
        </linearGradient>
    </defs>
</svg>
